<svg width="48" height="45" viewBox="0 0 48 45" fill="none" xmlns="http://www.w3.org/2000/svg">
<mask id="path-1-inside-1_8672_749" fill="white">
<path fill-rule="evenodd" clip-rule="evenodd" d="M34.8047 0.938394C35.4739 -0.129903 36.9526 -0.320166 37.8705 0.543917L47.2776 9.39974C48.022 10.1005 48.1181 11.2498 47.5004 12.0644L35.694 27.6345C35.6881 27.6424 35.6885 27.6534 35.6952 27.6608V27.6608C35.7017 27.6681 35.7023 27.679 35.6964 27.6869L31.752 32.993L27.322 38.9524C26.5687 39.9657 25.0766 40.0361 24.2313 39.0982L19.2615 33.5839L19.2599 33.5822V33.5822C18.9918 33.2847 18.544 33.2337 18.2158 33.4634L3.15783 44.0013C1.47043 45.1822 -0.684805 43.3495 0.209484 41.4943L11.8543 17.3363L15.4839 9.43696C16.0836 8.13163 17.823 7.86548 18.7857 8.93173L24.9695 15.781V15.781C25.1285 15.9571 25.4118 15.9323 25.5377 15.7312L34.8047 0.938394Z"/>
</mask>
<path fill-rule="evenodd" clip-rule="evenodd" d="M34.8047 0.938394C35.4739 -0.129903 36.9526 -0.320166 37.8705 0.543917L47.2776 9.39974C48.022 10.1005 48.1181 11.2498 47.5004 12.0644L35.694 27.6345C35.6881 27.6424 35.6885 27.6534 35.6952 27.6608V27.6608C35.7017 27.6681 35.7023 27.679 35.6964 27.6869L31.752 32.993L27.322 38.9524C26.5687 39.9657 25.0766 40.0361 24.2313 39.0982L19.2615 33.5839L19.2599 33.5822V33.5822C18.9918 33.2847 18.544 33.2337 18.2158 33.4634L3.15783 44.0013C1.47043 45.1822 -0.684805 43.3495 0.209484 41.4943L11.8543 17.3363L15.4839 9.43696C16.0836 8.13163 17.823 7.86548 18.7857 8.93173L24.9695 15.781V15.781C25.1285 15.9571 25.4118 15.9323 25.5377 15.7312L34.8047 0.938394Z" fill="white"/>
<path d="M31.752 32.993L28.5418 30.6066L28.5418 30.6066L31.752 32.993ZM19.2615 33.5839L22.2328 30.906L22.2316 30.9047L19.2615 33.5839ZM11.8543 17.3363L15.4575 19.0731L15.4735 19.0399L15.489 19.0063L11.8543 17.3363ZM3.15783 44.0013L5.45129 47.2785L3.15783 44.0013ZM18.2158 33.4634L15.9224 30.1862L18.2158 33.4634ZM35.6964 27.6869L32.4862 25.3005L35.6964 27.6869ZM25.5377 15.7312L28.9275 17.8548L25.5377 15.7312ZM35.694 27.6345L32.5067 25.2177L35.694 27.6345ZM34.8047 0.938394L31.4149 -1.18514L34.8047 0.938394ZM27.322 38.9524L24.1118 36.566L27.322 38.9524ZM24.2313 39.0982L27.2026 36.4202L24.2313 39.0982ZM15.4839 9.43696L11.8492 7.7669L15.4839 9.43696ZM18.7857 8.93173L21.7546 6.2512L18.7857 8.93173ZM47.2776 9.39974L44.5358 12.3122L47.2776 9.39974ZM47.5004 12.0644L44.3131 9.64757L47.5004 12.0644ZM50.0194 6.48726L40.6123 -2.36857L35.1287 3.4564L44.5358 12.3122L50.0194 6.48726ZM38.8813 30.0514L50.6877 14.4812L44.3131 9.64757L32.5067 25.2177L38.8813 30.0514ZM32.4862 25.3005L28.5418 30.6066L34.9622 35.3793L38.9066 30.0732L32.4862 25.3005ZM28.5418 30.6066L24.1118 36.566L30.5322 41.3387L34.9622 35.3793L28.5418 30.6066ZM27.2026 36.4202L22.2328 30.906L16.2902 36.2618L21.2599 41.7761L27.2026 36.4202ZM22.2316 30.9047L22.2301 30.903L16.2898 36.2614L16.2913 36.2631L22.2316 30.9047ZM15.9224 30.1862L0.864369 40.7241L5.45129 47.2785L20.5093 36.7406L15.9224 30.1862ZM3.81272 43.2311L15.4575 19.0731L8.25104 15.5994L-3.39376 39.7574L3.81272 43.2311ZM15.489 19.0063L19.1185 11.107L11.8492 7.7669L8.2196 15.6662L15.489 19.0063ZM15.8167 11.6123L22.0006 18.4615L27.9385 13.1005L21.7546 6.2512L15.8167 11.6123ZM31.4149 -1.18514L22.1479 13.6077L28.9275 17.8548L38.1945 3.06193L31.4149 -1.18514ZM0.864369 40.7241C2.55179 39.5432 4.707 41.3759 3.81272 43.2311L-3.39376 39.7574C-6.0766 45.3232 0.389069 50.8211 5.45129 47.2785L0.864369 40.7241ZM22.2313 30.9043C20.6111 29.1066 17.9051 28.7986 15.9224 30.1862L20.5093 36.7406C19.1828 37.6688 17.3725 37.4628 16.2886 36.2601L22.2313 30.9043ZM32.7264 30.3415C31.4548 28.9333 31.3543 26.8232 32.4862 25.3005L38.9066 30.0732C40.0502 28.5348 39.9487 26.4029 38.664 24.9801L32.7264 30.3415ZM22.0006 18.4615C23.9387 20.6082 27.3921 20.3057 28.9275 17.8548L22.1479 13.6077C23.4315 11.5588 26.3183 11.3059 27.9385 13.1005L22.0006 18.4615ZM32.5067 25.2177C31.3398 26.7567 31.432 28.908 32.7264 30.3415L38.664 24.9801C39.9451 26.3989 40.0364 28.5282 38.8813 30.0514L32.5067 25.2177ZM40.6123 -2.36857C37.8586 -4.96082 33.4226 -4.39003 31.4149 -1.18514L38.1945 3.06193C37.5252 4.13022 36.0466 4.32049 35.1287 3.4564L40.6123 -2.36857ZM24.1118 36.566C24.8651 35.5527 26.3573 35.4823 27.2026 36.4202L21.2599 41.7761C23.7958 44.5898 28.2724 44.3787 30.5322 41.3387L24.1118 36.566ZM19.1185 11.107C18.5188 12.4123 16.7794 12.6785 15.8167 11.6123L21.7546 6.2512C18.8667 3.05244 13.6485 3.85092 11.8492 7.7669L19.1185 11.107ZM44.5358 12.3122C43.7915 11.6115 43.6954 10.4622 44.3131 9.64757L50.6877 14.4812C52.5408 12.0374 52.2525 8.58949 50.0194 6.48726L44.5358 12.3122Z" fill="#292929" mask="url(#path-1-inside-1_8672_749)"/>
</svg>
